<?xml version="1.0" encoding="UTF-8"?>
<svg width="16px" height="16px" viewBox="0 0 16 16" version="1.1" xmlns="http://www.w3.org/2000/svg" xmlns:xlink="http://www.w3.org/1999/xlink">
    <title>MenuBarIcon Full</title>
    <g id="Page-1" stroke="none" stroke-width="1" fill="none" fill-rule="evenodd">
        <g id="MenuBarIcon-Full" fill="#000000" stroke="#000000" stroke-width="2">
            <path d="M13,1 C13.5522847,1 14.0522847,1.22385763 14.4142136,1.58578644 C14.7359281,1.90750094 14.9485493,2.33830872 14.9918267,2.81795923 L15,3 L15,13 C15,13.5522847 14.7761424,14.0522847 14.4142136,14.4142136 C14.0924991,14.7359281 13.6616913,14.9485493 13.1820408,14.9918267 L13,15 L3,15 C2.44771525,15 1.94771525,14.7761424 1.58578644,14.4142136 C1.26407194,14.0924991 1.05145072,13.6616913 1.00817335,13.1820408 L1,13 L1,3 C1,2.44771525 1.22385763,1.94771525 1.58578644,1.58578644 C1.90750094,1.26407194 2.33830872,1.05145072 2.81795923,1.00817335 L3,1 L13,1 Z M12.0877973,2 L8.50198195,2 L7.91220272,9 L11.4980181,9 L12.0877973,2 Z M8.08779728,2 L4.50198195,2 L3.91220272,9 L7.49801805,9 L8.08779728,2 Z" id="Combined-Shape"></path>
        </g>
    </g>
</svg>